<svg width="425" height="156" viewBox="0 0 425 156" fill="none" xmlns="http://www.w3.org/2000/svg">
<path d="M391.541 29.9869C391.657 25.0128 389.099 20.7045 386.85 16.4354C385.687 14.3204 384.64 12.0488 383.593 9.93378C383.05 8.87629 382.469 7.85797 381.81 6.95715C381.499 6.52632 381.073 6.05632 380.724 5.74299C380.298 5.39049 380.22 5.50799 380.336 5.46883C380.259 5.46883 380.065 5.93882 380.026 6.44798C379.987 6.95714 380.026 7.4663 380.104 8.01463C380.298 9.07212 380.724 10.1688 381.228 11.2654C382.197 13.4979 383.205 15.7304 384.136 17.9628C385.105 20.1953 385.958 22.5061 387.082 24.6211C387.897 26.9319 389.409 28.8511 391.619 29.9869H391.541ZM391.541 29.9869C389.176 29.2427 387.315 27.2844 386.191 25.0911C384.873 22.9761 383.864 20.7436 382.74 18.5895C381.616 16.4354 380.608 14.2029 379.522 12.0096C378.979 10.8738 378.475 9.69878 378.204 8.36713C378.088 7.7013 378.01 6.99631 378.088 6.25216C378.204 5.58633 378.204 4.72467 379.096 3.90218C379.561 3.51052 380.298 3.39302 380.802 3.54969C381.306 3.70635 381.655 3.98051 381.965 4.21551C382.507 4.72467 382.895 5.19466 383.283 5.74299C384.058 6.80048 384.679 7.89713 385.221 9.03295L388.207 15.7695C389.137 18.0412 390.3 20.1561 390.998 22.5844C391.657 24.9736 392.006 27.5194 391.58 29.9477L391.541 29.9869Z" fill="#52805A"/>
<path d="M390.534 31.2794C387.587 27.167 384.33 23.3287 380.725 19.882C378.903 18.1979 377.042 16.5137 375.103 14.9863C374.134 14.2029 373.126 13.4588 372.118 12.7538C371.614 12.4013 371.071 12.0096 370.761 11.8921C370.451 11.7355 370.218 11.9705 370.295 11.8921C370.257 11.6571 370.373 12.323 370.644 12.8713C370.877 13.4196 371.148 13.9288 371.459 14.3988C372.079 15.3779 372.854 16.3179 373.707 17.2187C375.413 18.9812 377.352 20.6654 379.096 22.467L384.447 27.8328C385.339 28.7336 386.153 29.7128 387.122 30.4569C388.091 31.2011 389.332 31.4752 390.573 31.2402L390.534 31.2794ZM390.534 31.2794C389.371 31.7102 387.936 31.6319 386.773 30.9269C385.649 30.2219 384.757 29.3603 383.749 28.5769L378.011 23.642C376.111 21.997 374.25 20.352 372.389 18.5112C371.497 17.5712 370.606 16.5921 369.869 15.4954C369.481 14.9471 369.132 14.3596 368.861 13.7329C368.706 13.4196 368.59 13.1455 368.473 12.7538C368.357 12.4013 368.202 11.7355 368.512 11.1088C369.171 9.89466 370.528 9.85549 371.342 10.1688C372.195 10.5213 372.66 10.9521 373.164 11.3046C374.211 12.0488 375.181 12.8321 376.189 13.6546C378.127 15.2996 380.066 16.9837 381.772 18.8637C385.222 22.5845 388.246 26.7753 390.534 31.3186V31.2794Z" fill="#52805A"/>
<path d="M389.526 33.551C387.703 31.6711 385.649 30.1436 383.439 28.7336C381.267 27.3236 379.096 25.8745 376.925 24.5036C374.715 23.172 372.544 21.8012 370.257 20.7045C369.093 20.1562 367.93 19.647 366.767 19.2162C366.186 19.0204 365.527 18.7462 365.1 18.707C364.557 18.6679 364.596 18.7854 364.635 18.707C364.48 18.9812 365.449 20.3128 366.224 21.1353C367.077 22.0362 368.008 22.8587 369.016 23.6028C371.032 25.1303 373.281 26.4619 375.452 27.8328C377.662 29.1644 379.91 30.4177 382.237 31.5535C384.485 32.7677 386.967 33.6294 389.564 33.4727L389.526 33.551ZM389.526 33.551C386.967 34.1777 384.214 33.4335 381.81 32.4935C379.368 31.5144 377.003 30.4177 374.676 29.2036C372.35 27.9894 370.101 26.6186 367.93 25.0911C366.845 24.3078 365.798 23.4461 364.829 22.467C364.363 21.9578 363.898 21.4487 363.472 20.9003C363.084 20.2737 362.464 19.6079 362.657 18.3154C362.774 17.6887 363.278 17.1404 363.859 16.9054C364.441 16.7096 364.906 16.7487 365.333 16.8271C366.186 16.9837 366.69 17.2579 367.349 17.4929C368.589 17.9629 369.791 18.5112 370.993 19.1379C373.358 20.352 375.607 21.7228 377.739 23.2895C381.849 26.4228 386.424 29.2819 389.526 33.5902V33.551Z" fill="#52805A"/>
<path d="M388.324 36.0185C383.904 33.5118 379.174 31.7885 374.366 30.496L367.077 28.6552C365.837 28.3811 364.596 28.0286 363.433 27.8327C362.851 27.7152 362.27 27.6761 361.688 27.6369C361.378 27.6369 361.145 27.6369 361.184 27.6369C361.301 27.5977 361.339 27.4019 361.339 27.4802C361.262 27.4802 361.572 27.8719 362.115 28.2636C362.58 28.6161 363.084 28.9686 363.588 29.2819C364.596 29.9086 365.682 30.4569 366.845 30.966C369.093 31.9844 371.536 32.6502 373.862 33.5902C378.554 35.2743 383.361 37.5068 388.324 36.0185ZM388.324 36.0185C386.036 37.1543 383.322 37.2718 380.763 36.9193C378.205 36.5276 375.801 35.7051 373.358 35.0393C370.916 34.3343 368.512 33.6293 366.108 32.6502C364.906 32.141 363.704 31.5927 362.58 30.9269C361.998 30.5744 361.456 30.2219 360.913 29.791C360.486 29.3994 359.595 29.0077 359.401 27.6761C359.323 27.1278 359.633 26.2269 360.37 25.9136C361.029 25.6394 361.417 25.7178 361.727 25.7178C362.425 25.7178 363.084 25.8353 363.743 25.9919C365.061 26.2661 366.224 26.6186 367.465 26.9319C369.908 27.5977 372.35 28.2244 374.754 29.0861C379.562 30.731 384.33 32.846 388.285 36.0576L388.324 36.0185Z" fill="#52805A"/>
<path d="M386.967 38.4076C381.81 37.1935 377.119 36.606 372.699 35.666C370.489 35.196 368.008 34.8435 365.72 34.726C364.557 34.6869 363.394 34.6869 362.231 34.7652C361.649 34.8044 361.107 34.8827 360.525 35.0002C360.254 35.0394 359.905 35.1177 359.827 35.1569C359.633 35.2744 359.943 35.1569 359.905 34.8044C359.711 34.4519 360.215 35.0785 360.641 35.196C361.107 35.3919 361.649 35.5877 362.231 35.7835C363.355 36.136 364.518 36.4885 365.643 36.7627C367.93 37.3893 370.257 37.8202 372.622 38.1727C377.313 38.8385 382.12 38.8777 386.967 38.3685V38.4076ZM386.967 38.4076C382.314 39.7393 377.352 40.0918 372.466 39.7393C370.024 39.5826 367.581 39.1518 365.216 38.6035C364.014 38.3293 362.851 37.9768 361.688 37.6243C361.107 37.4677 360.525 37.2718 359.866 36.9977C359.556 36.841 359.207 36.6843 358.897 36.4493C358.587 36.2143 358.121 35.901 358.005 35.0394C357.927 34.0602 358.78 33.4727 359.168 33.3944C359.633 33.2377 359.905 33.2377 360.215 33.1594C360.835 33.0419 361.456 32.9636 362.115 32.9244C363.355 32.8461 364.635 32.8069 365.875 32.9244C368.357 33.1986 370.722 33.5119 373.164 34.256C378.127 35.6269 382.78 37.3502 387.006 38.4468L386.967 38.4076Z" fill="#52805A"/>
<path d="M387.044 39.4651C381.926 40.0526 377.119 40.7576 372.505 41.3843C370.179 41.7368 367.93 41.9718 365.604 42.2068C364.479 42.3634 363.239 42.4026 362.231 42.5984C361.727 42.7159 361.223 42.8726 360.912 43.1076C360.757 43.1859 360.719 43.3034 360.757 43.2251C360.757 43.1467 360.719 43.0684 360.796 43.1859C361.92 44.2434 364.751 44.3217 366.922 44.3217C369.248 44.3217 371.613 44.0867 373.978 43.8126C378.514 43.1076 383.826 43.3817 387.044 39.4651ZM387.044 39.4651C385.842 41.6193 383.555 42.9901 381.267 43.7734C378.941 44.4392 376.537 44.7917 374.172 45.3009C371.807 45.81 369.403 46.045 366.961 46.1625C365.72 46.2017 364.479 46.1625 363.239 46.0059C361.998 45.8101 360.641 45.6925 359.323 44.4392C359.013 44.1259 358.664 43.4209 358.858 42.7159C359.051 42.0501 359.478 41.6976 359.827 41.4626C360.525 41.0318 361.184 40.8359 361.843 40.7184C363.161 40.4834 364.324 40.4443 365.565 40.3659C368.046 40.2093 370.528 40.0526 372.97 39.9743L387.005 39.4651H387.044Z" fill="#52805A"/>
<path d="M387.355 41.4626C381.966 43.0293 377.158 44.9876 372.505 46.4759C370.218 47.2984 367.582 47.8859 365.372 48.9825C364.247 49.5309 363.2 50.1575 362.309 50.9408C361.844 51.3325 361.456 51.7633 361.107 52.2333C360.719 52.7033 360.487 53.2516 360.564 53.1733C360.487 53.095 360.68 53.3691 361.029 53.2908C361.417 53.2908 362.076 52.9775 362.658 52.7425L366.263 51.3717C368.667 50.4317 371.032 49.3742 373.397 48.3559C378.127 46.2801 382.741 43.9693 387.316 41.4626H387.355ZM387.355 41.4626C383.206 44.6742 378.709 47.3375 374.095 49.7267C371.769 50.9408 369.404 51.9983 367 53.0166L363.356 54.505C362.735 54.74 362.231 55.0141 361.301 55.1708C360.448 55.3274 359.052 55.0141 358.664 53.565C358.509 52.155 359.285 51.5675 359.634 51.0192C360.099 50.4708 360.603 49.9617 361.107 49.4917C362.192 48.5909 363.394 47.8859 364.635 47.3375C367.155 46.2409 369.598 45.6534 372.273 44.9876C377.584 43.6559 382.78 42.7159 387.355 41.4626Z" fill="#52805A"/>
<path d="M394.256 28.6161C393.403 23.8378 393.597 18.942 393.442 14.1638C393.326 11.7746 393.248 9.38547 392.861 7.07466C392.667 5.89968 392.473 4.76386 392.163 3.62804C392.008 3.04055 391.853 2.49222 391.659 2.17889C391.426 1.86556 391.426 1.94389 391.31 1.94389C390.883 1.94389 390.651 3.04055 390.496 4.2547C390.34 5.42969 390.224 6.5655 390.185 7.74049C390.069 10.0905 390.224 12.4404 390.457 14.8296C390.961 19.5687 392.318 24.1511 394.295 28.5769L394.256 28.6161ZM394.256 28.6161C391.581 24.6211 389.759 19.9212 388.945 15.1037C388.479 12.7146 388.286 10.2471 388.324 7.74049C388.324 6.48717 388.441 5.27302 388.596 4.01971C388.673 3.39305 388.712 2.84472 388.945 2.10056C389.139 1.39557 389.681 0.494749 390.612 0.142253C391.62 -0.327741 392.977 0.455577 393.287 1.19973C393.714 1.94389 393.83 2.57055 393.985 3.15804C394.295 4.3722 394.528 5.58635 394.683 6.8005C394.954 9.26797 395.071 11.6963 394.954 14.1246C394.799 18.9812 394.218 23.7595 394.295 28.5769L394.256 28.6161Z" fill="#52805A"/>
<path d="M389.293 8.95465C387.781 6.91801 386.734 4.80303 385.105 3.47138C384.718 3.07971 384.33 3.00139 384.485 3.00139C384.524 2.80556 384.252 3.23638 384.097 3.82387C383.787 4.92053 383.593 6.05634 383.399 7.34883C382.818 6.21301 382.585 4.92053 382.624 3.62805C382.624 3.07972 382.546 2.0614 383.748 1.31724C385.105 0.847244 385.842 1.66974 386.346 2.02223C387.354 2.92305 388.129 4.09804 388.556 5.27303C389.021 6.48718 389.254 7.70133 389.293 8.95465Z" fill="#52805A"/>
<path d="M379.6 10.2472C378.398 9.5422 377.313 8.87637 376.149 8.28888C374.986 7.74055 373.668 7.03556 373.513 7.46639C372.931 7.85805 372.66 9.03303 372.854 10.1297C373.048 11.2655 373.707 12.4405 374.25 13.733C373.125 12.9497 372.04 12.0097 371.419 10.5605C370.838 9.1897 370.76 7.15306 372.35 5.86057C373.242 5.15558 374.599 5.39058 375.18 5.78224C375.839 6.1739 376.382 6.5264 376.925 6.9964C378.01 7.89722 378.941 8.9547 379.561 10.208L379.6 10.2472Z" fill="#52805A"/>
<path d="M371.032 15.1429C370.102 14.9863 369.288 14.8296 368.512 14.7121C367.737 14.6338 366.806 14.5163 366.574 14.7121C366.496 14.7513 366.574 14.5946 366.496 14.8296C366.419 15.0254 366.535 15.4171 366.574 15.8088C366.729 16.5921 366.961 17.3362 367.31 18.2371C366.419 17.9237 365.682 17.2187 365.178 16.3963C364.906 15.9654 364.713 15.5346 364.635 14.8688C364.519 14.2029 365.062 13.1846 365.837 12.9105C367.272 12.5188 368.086 12.9496 368.939 13.3413C369.792 13.7721 370.528 14.3596 371.032 15.1821V15.1429Z" fill="#52805A"/>
<path d="M364.519 27.0494C363.666 27.1278 362.774 26.9711 361.96 26.3836C361.107 25.7961 360.564 24.5819 361.029 23.3286C361.689 21.9186 362.968 21.8011 363.705 21.762C364.558 21.6836 365.682 21.8795 366.147 22.7411C365.294 22.6236 364.713 22.937 364.054 23.2111C363.356 23.5636 362.813 23.8378 362.852 24.0336C362.735 24.2686 362.774 24.8169 363.046 25.3261C363.356 25.8744 363.976 26.3836 364.558 27.0494H364.519Z" fill="#52805A"/>
<path d="M362.619 29.9477C362.153 30.4569 361.688 30.731 361.378 30.966C361.145 31.3185 361.068 31.4752 361.107 31.5927C361.107 31.7885 361.184 32.2194 361.262 32.611C361.378 33.0418 361.572 33.4727 361.96 34.021C361.3 34.2168 360.603 33.9818 360.099 33.5118C359.556 33.0418 359.207 32.4152 359.207 31.5144C359.246 30.5352 360.021 29.7519 360.719 29.6344C361.417 29.5561 362.037 29.6344 362.619 29.9477Z" fill="#52805A"/>
<path d="M363.007 37.0369C362.425 37.5068 361.805 37.8202 361.495 38.2118C361.184 38.5643 360.991 38.956 361.029 39.1127C360.991 39.2693 361.146 39.7001 361.456 40.1701C361.766 40.6401 362.154 41.1101 362.658 41.6585C361.921 41.8935 361.146 41.6976 360.448 41.306C359.789 40.9535 359.091 40.2485 359.052 39.0343C359.168 37.8593 359.944 37.1152 360.758 36.8802C361.572 36.6452 362.309 36.7235 362.968 37.0369H363.007Z" fill="#52805A"/>
<path d="M362.697 45.2618C362.192 45.4576 361.688 45.6926 361.262 46.0059C360.836 46.3193 360.487 46.7892 360.37 47.3376C360.293 47.8076 360.448 48.3167 360.68 48.7084C360.913 49.1001 361.301 49.4526 361.65 49.7659" stroke="#52805A" stroke-width="1.06593" stroke-miterlimit="10"/>
<path d="M393.946 27.0495C394.682 28.6944 395.264 30.4569 395.458 32.3369C395.651 34.1385 395.651 36.136 394.488 38.0943C393.015 39.8176 391.542 40.5618 389.913 41.4626C388.285 42.2459 386.618 43.1076 384.757 43.1468C386.346 42.3243 387.703 41.2276 389.138 40.2093C390.456 39.1518 392.085 38.0552 392.899 37.0368C393.674 35.901 393.829 34.1385 393.984 32.4152C394.139 30.7311 393.984 28.9294 393.984 27.0886L393.946 27.0495Z" fill="#52805A"/>
<path d="M394.799 36.4884C398.327 46.28 399.141 57.129 397.28 67.4689C395.341 77.9654 389.293 86.7387 385.416 96.256C377.197 115.173 377.972 137.185 386.657 155.906L386.502 155.984C381.035 147.133 378.05 136.715 377.701 126.179C377.274 115.643 379.717 105.029 384.447 95.7469C386.773 91.0861 389.371 86.6212 391.464 81.8821C393.674 77.1821 395.031 72.208 395.69 67.1556C397.164 57.0507 396.853 46.6325 394.605 36.5276H394.799V36.4884Z" fill="#52805A"/>
<path d="M386.153 93.0445C386.657 89.637 386.851 85.9554 386.463 82.5088C386.153 78.9838 385.261 75.5763 384.214 72.208C383.129 68.8397 381.81 65.5106 380.104 62.3773C378.437 59.2049 376.576 56.0324 375.84 52.3899L376.731 52.5466C373.669 59.4007 372.932 67.1556 374.638 74.3622C375.53 77.9655 376.964 81.4121 378.941 84.5846C380.841 87.757 383.516 90.577 386.153 93.1228V93.0445ZM386.23 93.2403C382.857 91.1645 380.027 88.5795 377.662 85.407C375.336 82.2737 373.63 78.6313 372.699 74.793C370.761 67.1164 371.963 58.7349 375.878 52.0374L376.615 50.745L376.77 52.1941C377.119 55.6799 378.903 58.9307 380.725 61.9857C382.586 65.0406 384.486 68.2131 385.765 71.6205C387.083 75.028 387.781 78.7096 387.936 82.3912C388.014 86.0729 387.626 89.7153 386.191 93.2403H386.23Z" fill="#52805A"/>
<path d="M378.864 125.787C377.778 120.5 375.917 115.526 373.397 110.826C372.195 108.476 370.916 106.126 369.597 103.776C368.279 101.426 366.845 99.1544 365.294 96.9611L365.837 96.8436C365.023 100.643 364.518 104.52 364.441 108.319C364.363 112.118 364.751 115.957 366.108 119.364C368.628 126.375 375.684 130.84 379.794 137.537L379.639 137.655C377.041 134.756 374.017 132.446 371.187 129.743C368.318 127.119 365.643 123.947 364.17 120.108C362.813 116.27 362.502 112.158 362.89 108.202C363.278 104.246 364.363 100.486 365.178 96.687L365.333 95.982L365.72 96.5695C367.271 98.8019 368.861 100.956 370.45 103.11C372.079 105.264 373.552 107.575 374.832 110.003C377.235 114.86 379.096 120.265 378.941 125.748H378.747L378.864 125.787Z" fill="#52805A"/>
<path d="M379.368 113.098C383.517 111.962 387.432 110.278 391.077 108.123C394.683 105.93 397.939 103.228 400.925 100.173C403.91 97.1177 406.508 93.6319 408.718 89.9503C410.928 86.2295 412.866 82.3521 415.076 78.5921L415.89 79.6888C402.398 84.1145 390.612 92.7703 381.694 104.05L381.539 103.933C388.634 91.2036 401.429 81.8429 415.503 78.2788L417.402 77.8088L416.278 79.3754C413.797 82.9004 411.509 86.582 409.26 90.2636C407.012 93.9452 404.763 97.7052 402.01 101.152C399.258 104.598 395.729 107.379 391.852 109.455C387.975 111.531 383.749 112.863 379.407 113.293V113.098H379.368Z" fill="#52805A"/>
<path d="M397.435 61.1632C397.202 56.8549 397.861 52.8208 399.063 48.7867C400.304 44.7918 402.088 40.9926 404.491 37.5852C406.934 34.2169 409.919 31.3186 413.06 28.6553C416.239 26.0312 419.612 23.6812 423.256 21.8012L425.311 20.7437L423.915 22.6629C421.628 25.8353 420 29.4386 418.565 33.1202C417.131 36.841 415.929 40.6401 414.262 44.3609C411.16 51.8025 405.499 58.8524 397.474 61.1632H397.435ZM397.551 61.0066C400.963 59.3224 404.142 56.6983 406.546 53.6825C409.066 50.6667 410.811 47.1809 412.401 43.5776C413.913 39.9351 415.27 36.1752 416.859 32.4544C418.41 28.7336 420.387 25.052 423.063 21.997L423.722 22.8587C420 24.3862 416.51 26.5012 413.486 29.2036C410.423 31.8669 407.942 35.1177 405.81 38.5252C403.677 41.9326 401.816 45.4967 400.498 49.2959C399.102 53.0558 398.21 57.1291 397.59 61.0457L397.551 61.0066Z" fill="#52805A"/>
<path d="M384.911 93.0053C383.361 83.0571 377.816 73.7356 377.041 63.3957C378.476 73.6964 384.485 82.3521 386.811 92.6528L384.911 93.0053Z" fill="#52805A"/>
<path d="M396.737 59.0482C402.941 50.98 408.756 42.5593 414.107 33.8252C409.299 42.8726 404.065 51.685 398.327 60.2232L396.776 59.0874L396.737 59.0482Z" fill="#52805A"/>
<path d="M378.825 112.001C385.416 103.659 393.247 96.4129 401.971 90.6163C393.635 96.9612 386.307 104.638 380.376 113.176L378.825 112.001Z" fill="#52805A"/>
<path d="M378.166 132.015L366.069 105.343L379.871 131.075L378.166 132.015Z" fill="#52805A"/>
<path d="M33.7702 29.9869C33.6539 25.0128 36.2128 20.7045 38.4615 16.4354C39.6246 14.3204 40.6714 12.0488 41.7182 9.93378C42.261 8.87629 42.8426 7.85797 43.5017 6.95715C43.8118 6.52632 44.2383 6.05632 44.5873 5.74299C45.0137 5.39049 45.0913 5.50799 44.975 5.46883C45.0525 5.46883 45.2464 5.93882 45.2851 6.44798C45.3239 6.95714 45.2851 7.4663 45.2076 8.01463C45.0137 9.07212 44.5872 10.1688 44.0832 11.2654C43.114 13.4979 42.1059 15.7304 41.1754 17.9628C40.2061 20.1953 39.3532 22.5061 38.2288 24.6211C37.4146 26.9319 35.9026 28.8511 33.6927 29.9869H33.7702ZM33.7702 29.9869C36.1352 29.2427 37.9962 27.2844 39.1206 25.0911C40.4388 22.9761 41.4468 20.7436 42.5712 18.5895C43.6955 16.4354 44.7036 14.2029 45.7892 12.0096C46.3319 10.8738 46.836 9.69878 47.1074 8.36713C47.2237 7.7013 47.3012 6.99631 47.2237 6.25216C47.1074 5.58633 47.1074 4.72467 46.2156 3.90218C45.7504 3.51052 45.0137 3.39302 44.5097 3.54969C44.0057 3.70635 43.6568 3.98051 43.3466 4.21551C42.8038 4.72467 42.4161 5.19466 42.0284 5.74299C41.253 6.80048 40.6326 7.89713 40.0898 9.03295L37.1045 15.7695C36.174 18.0412 35.0109 20.1561 34.313 22.5844C33.6539 24.9736 33.3049 27.5194 33.7314 29.9477L33.7702 29.9869Z" fill="#52805A"/>
<path d="M34.7775 31.2794C37.7241 27.167 40.9808 23.3287 44.5865 19.882C46.4087 18.1979 48.2697 16.5137 50.2083 14.9863C51.1775 14.2029 52.1856 13.4588 53.1936 12.7538C53.6976 12.4013 54.2404 12.0096 54.5506 11.8921C54.8608 11.7355 55.0934 11.9705 55.0158 11.8921C55.0546 11.6571 54.9383 12.323 54.6669 12.8713C54.4343 13.4196 54.1629 13.9288 53.8527 14.3988C53.2324 15.3779 52.457 16.3179 51.604 17.2187C49.8981 18.9812 47.9596 20.6654 46.2149 22.467L40.8645 27.8328C39.9728 28.7336 39.1586 29.7128 38.1893 30.4569C37.22 31.2011 35.9794 31.4752 34.7387 31.2402L34.7775 31.2794ZM34.7775 31.2794C35.9406 31.7102 37.3751 31.6319 38.5382 30.9269C39.6626 30.2219 40.5543 29.3603 41.5624 28.5769L47.3004 23.642C49.2002 21.997 51.0612 20.352 52.9222 18.5112C53.8139 17.5712 54.7057 16.5921 55.4423 15.4954C55.83 14.9471 56.179 14.3596 56.4504 13.7329C56.6054 13.4196 56.7218 13.1455 56.8381 12.7538C56.9544 12.4013 57.1095 11.7355 56.7993 11.1088C56.1402 9.89466 54.7832 9.85549 53.969 10.1688C53.1161 10.5213 52.6508 10.9521 52.1468 11.3046C51.1 12.0488 50.1307 12.8321 49.1227 13.6546C47.1841 15.2996 45.2456 16.9837 43.5397 18.8637C40.0891 22.5845 37.065 26.7753 34.7775 31.3186V31.2794Z" fill="#52805A"/>
<path d="M35.7856 33.551C37.6078 31.6711 39.6627 30.1436 41.8726 28.7336C44.0438 27.3236 46.215 25.8745 48.3861 24.5036C50.5961 23.172 52.7672 21.8012 55.0547 20.7045C56.2179 20.1562 57.381 19.647 58.5441 19.2162C59.1257 19.0204 59.7848 18.7462 60.2112 18.707C60.754 18.6679 60.7153 18.7854 60.6765 18.707C60.8316 18.9812 59.8623 20.3128 59.0869 21.1353C58.2339 22.0362 57.3034 22.8587 56.2954 23.6028C54.2793 25.1303 52.0306 26.4619 49.8594 27.8328C47.6495 29.1644 45.4008 30.4177 43.0745 31.5535C40.8258 32.7677 38.3445 33.6294 35.7469 33.4727L35.7856 33.551ZM35.7856 33.551C38.3445 34.1777 41.0972 33.4335 43.501 32.4935C45.9436 31.5144 48.3086 30.4177 50.6349 29.2036C52.9611 27.9894 55.2098 26.6186 57.381 25.0911C58.4666 24.3078 59.5134 23.4461 60.4826 22.467C60.9479 21.9578 61.4131 21.4487 61.8396 20.9003C62.2273 20.2737 62.8477 19.6079 62.6538 18.3154C62.5375 17.6887 62.0335 17.1404 61.4519 16.9054C60.8703 16.7096 60.4051 16.7487 59.9786 16.8271C59.1257 16.9837 58.6216 17.2579 57.9625 17.4929C56.7219 17.9629 55.52 18.5112 54.3181 19.1379C51.9531 20.352 49.7044 21.7228 47.572 23.2895C43.4622 26.4228 38.8873 29.2819 35.7856 33.5902V33.551Z" fill="#52805A"/>
<path d="M36.9875 36.0185C41.4074 33.5118 46.1374 31.7885 50.945 30.496L58.2339 28.6552C59.4746 28.3811 60.7152 28.0286 61.8784 27.8327C62.4599 27.7152 63.0415 27.6761 63.623 27.6369C63.9332 27.6369 64.1658 27.6369 64.1271 27.6369C64.0108 27.5977 63.972 27.4019 63.972 27.4802C64.0495 27.4802 63.7394 27.8719 63.1966 28.2636C62.7313 28.6161 62.2273 28.9686 61.7233 29.2819C60.7152 29.9086 59.6297 30.4569 58.4665 30.966C56.2178 31.9844 53.7753 32.6502 51.449 33.5902C46.7577 35.2743 41.9502 37.5068 36.9875 36.0185ZM36.9875 36.0185C39.275 37.1543 41.9889 37.2718 44.5478 36.9193C47.1067 36.5276 49.5105 35.7051 51.953 35.0393C54.3956 34.3343 56.7994 33.6293 59.2032 32.6502C60.4051 32.141 61.607 31.5927 62.7313 30.9269C63.3129 30.5744 63.8557 30.2219 64.3985 29.791C64.8249 29.3994 65.7167 29.0077 65.9105 27.6761C65.9881 27.1278 65.6779 26.2269 64.9413 25.9136C64.2822 25.6394 63.8944 25.7178 63.5843 25.7178C62.8864 25.7178 62.2273 25.8353 61.5682 25.9919C60.25 26.2661 59.0869 26.6186 57.8462 26.9319C55.4036 27.5977 52.9611 28.2244 50.5573 29.0861C45.7497 30.731 40.9809 32.846 37.0263 36.0576L36.9875 36.0185Z" fill="#52805A"/>
<path d="M38.3445 38.4076C43.501 37.1935 48.1923 36.606 52.6122 35.666C54.8221 35.196 57.3034 34.8435 59.5909 34.726C60.7541 34.6869 61.9172 34.6869 63.0803 34.7652C63.6619 34.8044 64.2047 34.8827 64.7862 35.0002C65.0576 35.0394 65.4066 35.1177 65.4841 35.1569C65.678 35.2744 65.3678 35.1569 65.4066 34.8044C65.6004 34.4519 65.0964 35.0785 64.6699 35.196C64.2047 35.3919 63.6619 35.5877 63.0803 35.7835C61.956 36.136 60.7928 36.4885 59.6685 36.7627C57.381 37.3893 55.0547 37.8202 52.6897 38.1727C47.9985 38.8385 43.1909 38.8777 38.3445 38.3685V38.4076ZM38.3445 38.4076C42.997 39.7393 47.9597 40.0918 52.8448 39.7393C55.2874 39.5826 57.7299 39.1518 60.095 38.6035C61.2968 38.3293 62.46 37.9768 63.6231 37.6243C64.2047 37.4677 64.7862 37.2718 65.4453 36.9977C65.7555 36.841 66.1044 36.6843 66.4146 36.4493C66.7248 36.2143 67.19 35.901 67.3063 35.0394C67.3839 34.0602 66.5309 33.4727 66.1432 33.3944C65.678 33.2377 65.4066 33.2377 65.0964 33.1594C64.4761 33.0419 63.8557 32.9636 63.1966 32.9244C61.956 32.8461 60.6765 32.8069 59.4359 32.9244C56.9545 33.1986 54.5895 33.5119 52.1469 34.256C47.1843 35.6269 42.5318 37.3502 38.3057 38.4468L38.3445 38.4076Z" fill="#52805A"/>
<path d="M38.2673 39.4651C43.385 40.0526 48.1926 40.7576 52.8064 41.3843C55.1326 41.7368 57.3813 41.9718 59.7076 42.2068C60.8319 42.3634 62.0726 42.4026 63.0806 42.5984C63.5846 42.7159 64.0887 42.8726 64.3988 43.1076C64.5539 43.1859 64.5927 43.3034 64.5539 43.2251C64.5539 43.1467 64.5927 43.0684 64.5152 43.1859C63.3908 44.2434 60.5605 44.3217 58.3894 44.3217C56.0631 44.3217 53.6981 44.0867 51.3331 43.8126C46.7969 43.1076 41.4853 43.3817 38.2673 39.4651ZM38.2673 39.4651C39.4692 41.6193 41.7567 42.9901 44.0442 43.7734C46.3704 44.4392 48.7742 44.7917 51.1392 45.3009C53.5042 45.81 55.908 46.045 58.3506 46.1625C59.5912 46.2017 60.8319 46.1625 62.0726 46.0059C63.3133 45.8101 64.6702 45.6925 65.9884 44.4392C66.2986 44.1259 66.6475 43.4209 66.4537 42.7159C66.2598 42.0501 65.8334 41.6976 65.4844 41.4626C64.7865 41.0318 64.1274 40.8359 63.4683 40.7184C62.1501 40.4834 60.987 40.4443 59.7463 40.3659C57.265 40.2093 54.7837 40.0526 52.3411 39.9743L38.3061 39.4651H38.2673Z" fill="#52805A"/>
<path d="M37.9566 41.4626C43.3457 43.0293 48.1533 44.9876 52.8058 46.4759C55.0933 47.2984 57.7297 47.8859 59.9396 48.9825C61.064 49.5309 62.1108 50.1575 63.0025 50.9408C63.4678 51.3325 63.8555 51.7633 64.2044 52.2333C64.5921 52.7033 64.8248 53.2516 64.7472 53.1733C64.8248 53.095 64.6309 53.3691 64.282 53.2908C63.8943 53.2908 63.2351 52.9775 62.6536 52.7425L59.0479 51.3717C56.6441 50.4317 54.2791 49.3742 51.9141 48.3559C47.184 46.2801 42.5703 43.9693 37.9953 41.4626H37.9566ZM37.9566 41.4626C42.1051 44.6742 46.6025 47.3375 51.2162 49.7267C53.5424 50.9408 55.9075 51.9983 58.3113 53.0166L61.9557 54.505C62.5761 54.74 63.0801 55.0141 64.0106 55.1708C64.8635 55.3274 66.2593 55.0141 66.647 53.565C66.8021 52.155 66.0267 51.5675 65.6777 51.0192C65.2125 50.4708 64.7084 49.9617 64.2044 49.4917C63.1188 48.5909 61.9169 47.8859 60.6763 47.3375C58.1562 46.2409 55.7136 45.6534 53.0384 44.9876C47.7268 43.6559 42.5315 42.7159 37.9566 41.4626Z" fill="#52805A"/>
<path d="M31.0549 28.6161C31.9079 23.8378 31.714 18.942 31.8691 14.1638C31.9854 11.7746 32.063 9.38547 32.4507 7.07466C32.6445 5.89968 32.8384 4.76386 33.1486 3.62804C33.3036 3.04055 33.4587 2.49222 33.6526 2.17889C33.8852 1.86556 33.8852 1.94389 34.0015 1.94389C34.428 1.94389 34.6606 3.04055 34.8157 4.2547C34.9708 5.42969 35.0871 6.5655 35.1259 7.74049C35.2422 10.0905 35.0871 12.4404 34.8545 14.8296C34.3505 19.5687 32.9935 24.1511 31.0162 28.5769L31.0549 28.6161ZM31.0549 28.6161C33.7301 24.6211 35.5524 19.9212 36.3665 15.1037C36.8318 12.7146 37.0256 10.2471 36.9869 7.74049C36.9869 6.48717 36.8706 5.27302 36.7155 4.01971C36.6379 3.39305 36.5992 2.84472 36.3665 2.10056C36.1727 1.39557 35.6299 0.494749 34.6994 0.142253C33.6914 -0.327741 32.3344 0.455577 32.0242 1.19973C31.5977 1.94389 31.4814 2.57055 31.3263 3.15804C31.0162 4.3722 30.7835 5.58635 30.6285 6.8005C30.3571 9.26797 30.2408 11.6963 30.3571 14.1246C30.5122 18.9812 31.0937 23.7595 31.0162 28.5769L31.0549 28.6161Z" fill="#52805A"/>
<path d="M36.0187 8.95465C37.5308 6.91801 38.5776 4.80303 40.2059 3.47138C40.5936 3.07971 40.9814 3.00139 40.8263 3.00139C40.7875 2.80556 41.0589 3.23638 41.214 3.82387C41.5242 4.92053 41.718 6.05634 41.9119 7.34883C42.4934 6.21301 42.7261 4.92053 42.6873 3.62805C42.6873 3.07972 42.7648 2.0614 41.5629 1.31724C40.2059 0.847244 39.4693 1.66974 38.9653 2.02223C37.9572 2.92305 37.1818 4.09804 36.7553 5.27303C36.2901 6.48718 36.0575 7.70133 36.0187 8.95465Z" fill="#52805A"/>
<path d="M45.7112 10.2472C46.9131 9.5422 47.9987 8.87637 49.1618 8.28888C50.325 7.74055 51.6432 7.03556 51.7983 7.46639C52.3798 7.85805 52.6512 9.03303 52.4574 10.1297C52.2635 11.2655 51.6044 12.4405 51.0616 13.733C52.186 12.9497 53.2716 12.0097 53.8919 10.5605C54.4735 9.1897 54.551 7.15306 52.9614 5.86057C52.0697 5.15558 50.7127 5.39058 50.1311 5.78224C49.472 6.1739 48.9292 6.5264 48.3864 6.9964C47.3008 7.89722 46.3703 8.9547 45.75 10.208L45.7112 10.2472Z" fill="#52805A"/>
<path d="M54.279 15.1429C55.2095 14.9863 56.0237 14.8296 56.7991 14.7121C57.5745 14.6338 58.505 14.5163 58.7377 14.7121C58.8152 14.7513 58.7377 14.5946 58.8152 14.8296C58.8927 15.0254 58.7764 15.4171 58.7377 15.8088C58.5826 16.5921 58.3499 17.3362 58.001 18.2371C58.8927 17.9237 59.6294 17.2187 60.1334 16.3963C60.4048 15.9654 60.5987 15.5346 60.6762 14.8688C60.7925 14.2029 60.2497 13.1846 59.4743 12.9105C58.0398 12.5188 57.2256 12.9496 56.3726 13.3413C55.5197 13.7721 54.783 14.3596 54.279 15.1821V15.1429Z" fill="#52805A"/>
<path d="M60.7924 27.0494C61.6454 27.1278 62.5371 26.9711 63.3513 26.3836C64.2042 25.7961 64.747 24.5819 64.2818 23.3286C63.6227 21.9186 62.3432 21.8011 61.6066 21.762C60.7536 21.6836 59.6293 21.8795 59.164 22.7411C60.017 22.6236 60.5986 22.937 61.2577 23.2111C61.9555 23.5636 62.4983 23.8378 62.4596 24.0336C62.5759 24.2686 62.5371 24.8169 62.2657 25.3261C61.9555 25.8744 61.3352 26.3836 60.7536 27.0494H60.7924Z" fill="#52805A"/>
<path d="M62.6927 29.9477C63.1579 30.4569 63.6232 30.731 63.9333 30.966C64.1659 31.3185 64.2435 31.4752 64.2047 31.5927C64.2047 31.7885 64.1272 32.2194 64.0496 32.611C63.9333 33.0418 63.7395 33.4727 63.3518 34.021C64.0109 34.2168 64.7087 33.9818 65.2128 33.5118C65.7555 33.0418 66.1045 32.4152 66.1045 31.5144C66.0657 30.5352 65.2903 29.7519 64.5924 29.6344C63.8946 29.5561 63.2742 29.6344 62.6927 29.9477Z" fill="#52805A"/>
<path d="M62.3047 37.0369C62.8862 37.5068 63.5066 37.8202 63.8167 38.2118C64.1269 38.5643 64.3207 38.956 64.282 39.1127C64.3207 39.2693 64.1657 39.7001 63.8555 40.1701C63.5453 40.6401 63.1576 41.1101 62.6536 41.6585C63.3902 41.8935 64.1657 41.6976 64.8635 41.306C65.5226 40.9535 66.2205 40.2485 66.2593 39.0343C66.143 37.8593 65.3676 37.1152 64.5534 36.8802C63.7392 36.6452 63.0025 36.7235 62.3434 37.0369H62.3047Z" fill="#52805A"/>
<path d="M62.6148 45.2618C63.1188 45.4576 63.6228 45.6926 64.0493 46.0059C64.4758 46.3193 64.8247 46.7892 64.941 47.3376C65.0186 47.8076 64.8635 48.3167 64.6308 48.7084C64.3982 49.1001 64.0105 49.4526 63.6616 49.7659" stroke="#52805A" stroke-width="1.06593" stroke-miterlimit="10"/>
<path d="M31.3658 27.0495C30.6291 28.6944 30.0476 30.4569 29.8537 32.3369C29.6598 34.1385 29.6598 36.136 30.823 38.0943C32.2963 39.8176 33.7696 40.5618 35.3979 41.4626C37.0263 42.2459 38.6934 43.1076 40.5544 43.1468C38.9648 42.3243 37.6079 41.2276 36.1734 40.2093C34.8551 39.1518 33.2268 38.0552 32.4126 37.0368C31.6372 35.901 31.4821 34.1385 31.327 32.4152C31.1719 30.7311 31.327 28.9294 31.327 27.0886L31.3658 27.0495Z" fill="#52805A"/>
<path d="M30.5127 36.4884C26.9846 46.28 26.1704 57.129 28.0314 67.4689C29.9699 77.9654 36.0182 86.7387 39.8953 96.256C48.1147 115.173 47.3393 137.185 38.6546 155.906L38.8097 155.984C44.2764 147.133 47.2617 136.715 47.6107 126.179C48.0371 115.643 45.5946 105.029 40.8645 95.7469C38.5383 91.0861 35.9406 86.6212 33.847 81.8821C31.6371 77.1821 30.2801 72.208 29.621 67.1556C28.1477 57.0507 28.4579 46.6325 30.7066 36.5276H30.5127V36.4884Z" fill="#52805A"/>
<path d="M39.1586 93.0445C38.6546 89.637 38.4607 85.9554 38.8484 82.5088C39.1586 78.9838 40.0503 75.5763 41.0971 72.208C42.1827 68.8397 43.5009 65.5106 45.2068 62.3773C46.874 59.2049 48.735 56.0324 49.4716 52.3899L48.5799 52.5466C51.6428 59.4007 52.3794 67.1556 50.6735 74.3622C49.7818 77.9655 48.3472 81.4121 46.3699 84.5846C44.4702 87.757 41.795 90.577 39.1586 93.1228V93.0445ZM39.081 93.2403C42.4541 91.1645 45.2844 88.5795 47.6494 85.407C49.9756 82.2737 51.6815 78.6313 52.612 74.793C54.5506 67.1164 53.3487 58.7349 49.4328 52.0374L48.6962 50.745L48.5411 52.1941C48.1922 55.6799 46.4087 58.9307 44.5865 61.9857C42.7255 65.0406 40.8257 68.2131 39.5463 71.6205C38.2281 75.028 37.5302 78.7096 37.3751 82.3912C37.2976 86.0729 37.6853 89.7153 39.1198 93.2403H39.081Z" fill="#52805A"/>
<path d="M46.4476 125.787C47.5332 120.5 49.3942 115.526 51.9143 110.826C53.1162 108.476 54.3956 106.126 55.7138 103.776C57.032 101.426 58.4665 99.1544 60.0174 96.9611L59.4746 96.8436C60.2888 100.643 60.7928 104.52 60.8703 108.319C60.9479 112.118 60.5602 115.957 59.2032 119.364C56.6831 126.375 49.6268 130.84 45.5171 137.537L45.6722 137.655C48.2698 134.756 51.2939 132.446 54.1242 129.743C56.9933 127.119 59.6684 123.947 61.1417 120.108C62.4987 116.27 62.8089 112.158 62.4212 108.202C62.0335 104.246 60.9479 100.486 60.1337 96.687L59.9786 95.982L59.5909 96.5695C58.0401 98.8019 56.4505 100.956 54.8609 103.11C53.2325 105.264 51.7592 107.575 50.4798 110.003C48.076 114.86 46.215 120.265 46.37 125.748H46.5639L46.4476 125.787Z" fill="#52805A"/>
<path d="M45.9431 113.098C41.7946 111.962 37.8788 110.278 34.2343 108.123C30.6286 105.93 27.3719 103.228 24.3865 100.173C21.4012 97.1177 18.8035 93.6319 16.5936 89.9503C14.3836 86.2295 12.4451 82.3521 10.2352 78.5921L9.42099 79.6888C22.9132 84.1145 34.6996 92.7703 43.6169 104.05L43.7719 103.933C36.6769 91.2036 23.8825 81.8429 9.80869 78.2788L7.90893 77.8088L9.03328 79.3754C11.5146 82.9004 13.8021 86.582 16.0508 90.2636C18.2995 93.9452 20.5482 97.7052 23.301 101.152C26.0537 104.598 29.5818 107.379 33.4589 109.455C37.336 111.531 41.562 112.863 45.9043 113.293V113.098H45.9431Z" fill="#52805A"/>
<path d="M27.8763 61.1632C28.1089 56.8549 27.4498 52.8208 26.2479 48.7867C25.0072 44.7918 23.2238 40.9926 20.82 37.5852C18.3774 34.2169 15.3921 31.3186 12.2516 28.6553C9.07243 26.0312 5.69936 23.6812 2.05491 21.8012L5.72205e-05 20.7437L1.39581 22.6629C3.68329 25.8353 5.31167 29.4386 6.74619 33.1202C8.18071 36.841 9.38261 40.6401 11.0498 44.3609C14.1514 51.8025 19.8119 58.8524 27.8375 61.1632H27.8763ZM27.76 61.0066C24.3481 59.3224 21.1689 56.6983 18.7651 53.6825C16.245 50.6667 14.5004 47.1809 12.9107 43.5776C11.3987 39.9351 10.0417 36.1752 8.4521 32.4544C6.90127 28.7336 4.92396 25.052 2.24877 21.997L1.58966 22.8587C5.31166 24.3862 8.80103 26.5012 11.8252 29.2036C14.8881 31.8669 17.3694 35.1177 19.5018 38.5252C21.6342 41.9326 23.4952 45.4967 24.8134 49.2959C26.2091 53.0558 27.1009 57.1291 27.7212 61.0457L27.76 61.0066Z" fill="#52805A"/>
<path d="M40.3998 93.0053C41.9506 83.0571 47.4948 73.7356 48.2703 63.3957C46.8357 73.6964 40.8263 82.3521 38.5 92.6528L40.3998 93.0053Z" fill="#52805A"/>
<path d="M28.574 59.0482C22.3706 50.98 16.555 42.5593 11.2046 33.8252C16.0122 42.8726 21.2463 51.685 26.9844 60.2232L28.5352 59.0874L28.574 59.0482Z" fill="#52805A"/>
<path d="M46.4866 112.001C39.8955 103.659 32.0638 96.4129 23.3404 90.6163C31.6761 96.9612 39.0038 104.638 44.9357 113.176L46.4866 112.001Z" fill="#52805A"/>
<path d="M47.1457 132.015L59.2422 105.343L45.4398 131.075L47.1457 132.015Z" fill="#52805A"/>
</svg>
