<svg width="95" height="23" viewBox="0 0 95 23" fill="none" xmlns="http://www.w3.org/2000/svg">
<path d="M12.7976 10.4926C23.4901 10.9899 34.2103 11.4872 44.9304 11.1004C61.3145 10.4926 77.8368 7.7849 93.9999 10.5202" stroke="#52805A" stroke-width="1.06593" stroke-miterlimit="10"/>
<path d="M13.9299 10.6583L6.60821 8.42032C5.0886 7.95062 3.45848 7.48091 1.9665 8.06113C1.24814 8.33742 0.585032 8.97291 0.667919 9.7189C0.723178 10.4373 1.41391 10.9069 2.04938 11.2109C5.72407 13.0344 10.3381 12.7581 13.9299 10.6859L13.9299 10.6583Z" stroke="#52805A" stroke-width="1.06593" stroke-miterlimit="10"/>
<path d="M20.7544 10.7688C19.0967 10.1333 17.577 9.27683 16.3061 8.19929C15.6706 7.64671 15.0628 7.06647 14.5655 6.40336C13.9853 5.74026 13.8195 5.16006 14.0958 5.07717C14.3721 4.80088 15.0904 4.96667 15.864 5.35348C16.61 5.68503 17.3008 6.15473 17.9915 6.65206C19.2901 7.67434 20.3676 9.0558 20.782 10.7964L20.7544 10.7688ZM20.7544 10.7688C20.9478 8.94526 19.9808 7.12173 18.6822 5.85079C18.0467 5.16006 17.2731 4.63513 16.4443 4.19306C16.0298 3.97202 15.6154 3.75096 15.0628 3.64044C14.5102 3.50229 13.7918 3.55757 13.2393 3.99963C12.6314 4.41407 12.4657 5.40872 12.7143 5.93367C12.9077 6.51389 13.2669 6.92835 13.5708 7.25991C14.2063 7.95064 14.897 8.55846 15.6706 9.05579C17.1903 10.0781 18.9585 10.7136 20.7544 10.7964L20.7544 10.7688Z" fill="#52805A"/>
<path d="M28.9603 11.0174L23.1858 14.5263C22.1359 15.1894 21.1688 15.7696 20.2294 16.6261C19.7597 17.0682 19.3453 17.6208 19.1243 18.3115C18.848 18.947 19.0137 20.1903 19.9531 20.6048C20.8096 20.9639 21.528 20.7429 22.1358 20.5495C22.7161 20.3284 23.2686 20.0798 23.7936 19.7759C24.8435 19.168 25.8105 18.422 26.5565 17.4826C28.1314 15.6591 29.0155 13.3106 28.9603 10.9897L28.9603 11.0174ZM28.9603 11.0174C28.4353 13.2554 27.3578 15.2723 25.7829 16.7642C24.9817 17.4826 24.1252 18.1457 23.1581 18.6431C22.2464 19.1128 21.0307 19.6101 20.5334 19.3614C20.1466 19.3614 20.3676 18.2286 21.1412 17.5655C21.8595 16.8195 22.8542 16.2117 23.6278 15.5209C25.2856 14.1671 26.971 12.6199 28.9603 11.045L28.9603 11.0174Z" fill="#52805A"/>
<path d="M41.4214 11.266C39.1558 10.7411 36.8626 10.3819 34.7628 9.58063C33.7129 9.16619 32.7182 8.69649 31.8341 8.06102C30.9499 7.4808 30.425 6.6243 30.8394 6.12698C31.2262 5.49151 32.2209 5.35336 33.2432 5.65729C34.2931 5.93358 35.3154 6.37565 36.31 6.87298C38.2717 7.92289 39.9847 9.4701 41.4214 11.2936L41.4214 11.266ZM41.4214 11.266C40.482 9.13857 38.8795 7.25976 36.8626 5.93355C35.8679 5.24282 34.7628 4.77313 33.6023 4.38632C32.4972 3.99951 30.6737 3.94426 29.7066 5.38098C29.2093 6.07171 29.2922 7.09401 29.7066 7.72948C30.0934 8.36495 30.6184 8.807 31.1433 9.13856C32.1933 9.77403 33.2984 10.299 34.4588 10.5753C36.7797 11.2108 39.1282 11.3213 41.4491 11.266L41.4214 11.266Z" fill="#52805A"/>
<path d="M53.5503 10.1058C50.7597 10.9899 48.0797 12.3161 45.6207 13.9462C44.405 14.7475 43.1617 15.6316 42.167 16.8749C41.6697 17.4828 41.2553 18.2288 41.0343 19.03C40.8408 19.7484 40.6198 20.9364 41.6145 21.7653C42.5539 22.4561 43.6867 22.2074 44.405 21.8482C45.151 21.489 45.7312 21.1022 46.3667 20.7154C47.61 19.9142 48.8257 19.03 49.9032 17.9801C50.9808 16.9302 51.9754 15.7698 52.6385 14.4159C53.274 13.0621 53.6332 11.5425 53.5503 10.0781L53.5503 10.1058ZM53.5503 10.1058C53.1635 13.0621 51.4228 15.4382 49.2125 17.2065C48.1073 18.0906 46.9193 18.8919 45.676 19.6102C44.4603 20.3286 43.0512 21.268 42.471 20.6878C42.2499 20.5773 42.1671 19.997 42.3328 19.3616C42.471 18.7537 42.8025 18.2011 43.1893 17.6486C43.9906 16.571 45.1234 15.6869 46.2562 14.7751C48.5218 13.0069 50.9808 11.4596 53.5503 10.0781L53.5503 10.1058Z" fill="#52805A"/>
<path d="M70.4599 9.33202C68.6363 9.00047 66.9509 8.55838 65.3761 8.14394C63.8565 7.78476 62.1158 7.48084 60.5133 7.0664C58.8832 6.65196 57.2807 6.18226 55.8163 5.4639C54.4625 4.82843 52.5285 3.61277 53.0534 3.03256C53.2468 2.72864 54.131 2.4247 54.8493 2.36944C55.5953 2.28655 56.4242 2.36942 57.2254 2.47994C58.8279 2.70097 60.4028 3.28118 61.9224 3.94428C64.9616 5.32575 67.6693 7.45322 70.4875 9.35963L70.4599 9.33202ZM70.4599 9.33202C68.0009 6.98353 65.459 4.63504 62.3645 2.97729C60.8449 2.12078 59.1595 1.51293 57.4188 1.18138C56.5347 1.04324 55.6506 0.932725 54.7112 1.01561C53.7718 1.18139 52.8048 1.20901 51.9206 2.25892C51.0917 3.66801 52.2245 4.88368 52.9429 5.32575C53.6889 5.8507 54.4625 6.2928 55.2638 6.65198C56.8939 7.37034 58.5793 7.8124 60.2923 8.11633C62.0053 8.42025 63.6354 8.61364 65.4866 8.83467C67.2549 9.00045 68.9402 9.1386 70.4875 9.35963L70.4599 9.33202Z" fill="#52805A"/>
<path d="M81.3174 9.16626C78.3611 9.55307 75.4324 10.4649 72.7247 11.7358C71.3432 12.3713 70.017 13.1449 68.829 14.2501C68.2487 14.8027 67.7238 15.4381 67.337 16.1565C67.0054 16.8472 66.4252 17.6761 66.8949 18.8918C67.1712 19.5549 68.0553 19.8036 68.525 19.693C69.05 19.6101 69.3539 19.4996 69.7131 19.3891C70.4314 19.1681 71.1774 18.8918 71.8682 18.5878C73.2773 17.98 74.6311 17.234 75.8191 16.267C78.2505 14.4158 80.2398 11.9568 81.2897 9.16626L81.3174 9.16626ZM81.3174 9.16626C79.7425 11.7081 77.6703 13.8356 75.2389 15.4105C74.0232 16.1841 72.7523 16.8748 71.3985 17.3721C70.7354 17.6208 70.0446 17.8695 69.3539 18.0905C69.0224 18.1734 68.6356 18.3116 68.3869 18.3392C68.1382 18.3392 68.1659 18.3392 68.1382 18.2839C68.0001 18.0629 68.1935 17.3722 68.525 16.792C68.829 16.2117 69.271 15.6868 69.7407 15.1895C70.7077 14.1948 71.9511 13.4212 73.1944 12.7028C75.7639 11.2661 78.4716 10.1333 81.3174 9.19392L81.3174 9.16626Z" fill="#52805A"/>
<path d="M78.8034 8.80717C78.5823 7.86778 78.0574 7.23231 77.4771 6.6521C76.8417 6.12714 76.1509 5.65743 75.2115 5.51929C75.4602 6.48631 75.9852 7.12178 76.5378 7.67436C77.1456 8.19932 77.8363 8.6414 78.8034 8.80717Z" fill="#52805A"/>
<path d="M72.2832 9.33203C71.2609 9.33203 70.4044 9.74645 69.6308 10.2161C68.8848 10.7411 68.1664 11.3213 67.7244 12.2607C68.8019 12.2055 69.6032 11.8463 70.3768 11.3766C71.1228 10.8792 71.7859 10.2991 72.2832 9.33203Z" fill="#52805A"/>
<path d="M57.446 10.1886C56.6171 9.13868 55.5672 8.44793 54.5173 7.84008C53.4122 7.2875 52.2794 6.81779 50.9255 6.70728C51.7544 7.75719 52.7767 8.44793 53.8542 9.05578C54.9594 9.60836 56.0922 10.0781 57.446 10.1886Z" fill="#52805A"/>
<path d="M45.0129 10.9897C43.6591 11.266 42.5263 11.9015 41.4488 12.6199C40.3989 13.3659 39.4042 14.1947 38.6582 15.3828C40.012 15.1065 41.1448 14.471 42.2224 13.7527C43.2723 13.0067 44.2393 12.1778 45.0129 10.9897Z" fill="#52805A"/>
<path d="M30.8671 11.2936C30.3698 10.4095 29.7067 9.88451 29.016 9.47007C28.2976 9.08326 27.524 8.80701 26.5017 8.86227C26.9438 9.71877 27.6345 10.2437 28.3529 10.6858C29.0989 11.0726 29.9277 11.3765 30.8671 11.2936Z" fill="#52805A"/>
<path d="M22.9371 10.9897C21.8596 11.045 21.0031 11.4318 20.2018 11.9015C19.4282 12.4265 18.7099 13.0343 18.2125 14.0013C19.2901 13.9461 20.1466 13.5593 20.9478 13.0896C21.7214 12.5646 22.4398 11.9568 22.9371 10.9897Z" fill="#52805A"/>
<path d="M51.4225 6.09936C51.4225 7.16751 50.5566 8.0334 49.4885 8.0334C48.4203 8.0334 47.5544 7.16751 47.5544 6.09936C47.5544 5.03122 48.4203 4.16528 49.4885 4.16528C50.5566 4.16528 51.4225 5.03122 51.4225 6.09936Z" fill="#52805A"/>
<path d="M38.9897 16.0183C38.9897 17.0864 38.1238 17.9523 37.0556 17.9523C35.9875 17.9523 35.1216 17.0864 35.1216 16.0183C35.1216 14.9501 35.9875 14.0842 37.0556 14.0842C38.1238 14.0842 38.9897 14.9501 38.9897 16.0183Z" fill="#52805A"/>
<path d="M26.8052 8.0334C26.8052 9.10155 25.9393 9.96744 24.8712 9.96744C23.803 9.96744 22.9371 9.10155 22.9371 8.0334C22.9371 6.96526 23.803 6.09937 24.8712 6.09937C25.9393 6.09937 26.8052 6.96526 26.8052 8.0334Z" fill="#52805A"/>
<path d="M18.655 14.8027C18.655 15.8708 17.789 16.7367 16.7209 16.7367C15.6528 16.7367 14.7869 15.8708 14.7869 14.8027C14.7869 13.7345 15.6528 12.8687 16.7209 12.8687C17.789 12.8687 18.655 13.7345 18.655 14.8027Z" fill="#52805A"/>
<path d="M68.1109 13.1726C68.1109 14.2408 67.245 15.1066 66.1768 15.1066C65.1087 15.1066 64.2428 14.2408 64.2428 13.1726C64.2428 12.1045 65.1087 11.2385 66.1768 11.2385C67.245 11.2385 68.1109 12.1045 68.1109 13.1726Z" fill="#52805A"/>
<path d="M75.737 4.52461C75.737 5.59276 74.8711 6.45865 73.803 6.45865C72.7348 6.45865 71.8689 5.59276 71.8689 4.52461C71.8689 3.45647 72.7348 2.59058 73.803 2.59058C74.8711 2.59058 75.737 3.45647 75.737 4.52461Z" fill="#52805A"/>
</svg>
