<svg width="95" height="23" viewBox="0 0 95 23" fill="none" xmlns="http://www.w3.org/2000/svg">
<path d="M82.2024 10.4926C71.5099 10.9899 60.7897 11.4872 50.0696 11.1004C33.6855 10.4926 17.1632 7.7849 1.00005 10.5202" stroke="#52805A" stroke-width="1.06593" stroke-miterlimit="10"/>
<path d="M81.0701 10.6583L88.3918 8.42032C89.9114 7.95062 91.5415 7.48091 93.0335 8.06113C93.7519 8.33742 94.415 8.97291 94.3321 9.7189C94.2768 10.4373 93.5861 10.9069 92.9506 11.2109C89.2759 13.0344 84.6619 12.7581 81.0701 10.6859L81.0701 10.6583Z" stroke="#52805A" stroke-width="1.06593" stroke-miterlimit="10"/>
<path d="M74.2457 10.7688C75.9035 10.1333 77.4231 9.27683 78.694 8.19929C79.3295 7.64671 79.9373 7.06647 80.4347 6.40336C81.0149 5.74026 81.1806 5.16006 80.9043 5.07717C80.6281 4.80088 79.9097 4.96667 79.1361 5.35348C78.3901 5.68503 77.6994 6.15473 77.0086 6.65206C75.7101 7.67434 74.6325 9.0558 74.2181 10.7964L74.2457 10.7688ZM74.2457 10.7688C74.0523 8.94526 75.0193 7.12173 76.3179 5.85079C76.9534 5.16006 77.727 4.63513 78.5559 4.19306C78.9703 3.97202 79.3847 3.75096 79.9373 3.64044C80.4899 3.50229 81.2083 3.55757 81.7609 3.99963C82.3687 4.41407 82.5345 5.40872 82.2858 5.93367C82.0924 6.51389 81.7332 6.92835 81.4293 7.25991C80.7938 7.95064 80.1031 8.55846 79.3295 9.05579C77.8099 10.0781 76.0416 10.7136 74.2457 10.7964L74.2457 10.7688Z" fill="#52805A"/>
<path d="M66.0397 11.0174L71.8142 14.5263C72.8641 15.1894 73.8312 15.7696 74.7706 16.6261C75.2403 17.0682 75.6547 17.6208 75.8757 18.3115C76.152 18.947 75.9863 20.1903 75.0469 20.6048C74.1904 20.9639 73.472 20.7429 72.8642 20.5495C72.2839 20.3284 71.7314 20.0798 71.2064 19.7759C70.1565 19.168 69.1895 18.422 68.4435 17.4826C66.8686 15.6591 65.9845 13.3106 66.0397 10.9897L66.0397 11.0174ZM66.0397 11.0174C66.5647 13.2554 67.6422 15.2723 69.2171 16.7642C70.0183 17.4826 70.8748 18.1457 71.8419 18.6431C72.7536 19.1128 73.9693 19.6101 74.4666 19.3614C74.8534 19.3614 74.6324 18.2286 73.8588 17.5655C73.1405 16.8195 72.1458 16.2117 71.3722 15.5209C69.7144 14.1671 68.029 12.6199 66.0397 11.045L66.0397 11.0174Z" fill="#52805A"/>
<path d="M53.5786 11.266C55.8442 10.7411 58.1374 10.3819 60.2372 9.58063C61.2871 9.16619 62.2818 8.69649 63.1659 8.06102C64.0501 7.4808 64.575 6.6243 64.1606 6.12698C63.7738 5.49151 62.7791 5.35336 61.7568 5.65729C60.7069 5.93358 59.6846 6.37565 58.69 6.87298C56.7283 7.92289 55.0153 9.4701 53.5786 11.2936L53.5786 11.266ZM53.5786 11.266C54.518 9.13857 56.1205 7.25976 58.1374 5.93355C59.1321 5.24282 60.2372 4.77313 61.3977 4.38632C62.5028 3.99951 64.3263 3.94426 65.2934 5.38098C65.7907 6.07171 65.7078 7.09401 65.2934 7.72948C64.9066 8.36495 64.3816 8.807 63.8567 9.13856C62.8067 9.77403 61.7016 10.299 60.5412 10.5753C58.2203 11.2108 55.8718 11.3213 53.5509 11.266L53.5786 11.266Z" fill="#52805A"/>
<path d="M41.4496 10.1058C44.2401 10.9899 46.9202 12.3161 49.3792 13.9462C50.5949 14.7475 51.8382 15.6316 52.8328 16.8749C53.3302 17.4828 53.7446 18.2288 53.9656 19.03C54.159 19.7484 54.3801 20.9364 53.3854 21.7653C52.446 22.4561 51.3132 22.2074 50.5949 21.8482C49.8489 21.489 49.2687 21.1022 48.6332 20.7154C47.3899 19.9142 46.1742 19.03 45.0966 17.9801C44.0191 16.9302 43.0245 15.7698 42.3614 14.4159C41.7259 13.0621 41.3667 11.5425 41.4496 10.0781L41.4496 10.1058ZM41.4496 10.1058C41.8364 13.0621 43.577 15.4382 45.7874 17.2065C46.8925 18.0906 48.0806 18.8919 49.3239 19.6102C50.5396 20.3286 51.9487 21.268 52.5289 20.6878C52.7499 20.5773 52.8328 19.997 52.667 19.3616C52.5289 18.7537 52.1974 18.2011 51.8105 17.6486C51.0093 16.571 49.8765 15.6869 48.7437 14.7751C46.4781 13.0069 44.0191 11.4596 41.4496 10.0781L41.4496 10.1058Z" fill="#52805A"/>
<path d="M24.5401 9.33202C26.3637 9.00047 28.0491 8.55838 29.6239 8.14394C31.1435 7.78476 32.8842 7.48084 34.4867 7.0664C36.1168 6.65196 37.7193 6.18226 39.1837 5.4639C40.5375 4.82843 42.4715 3.61277 41.9466 3.03256C41.7532 2.72864 40.869 2.4247 40.1507 2.36944C39.4047 2.28655 38.5758 2.36942 37.7746 2.47994C36.1721 2.70097 34.5972 3.28118 33.0776 3.94428C30.0384 5.32575 27.3307 7.45322 24.5125 9.35963L24.5401 9.33202ZM24.5401 9.33202C26.9991 6.98353 29.541 4.63504 32.6355 2.97729C34.1551 2.12078 35.8405 1.51293 37.5812 1.18138C38.4653 1.04324 39.3494 0.932725 40.2888 1.01561C41.2282 1.18139 42.1952 1.20901 43.0794 2.25892C43.9083 3.66801 42.7755 4.88368 42.0571 5.32575C41.3111 5.8507 40.5375 6.2928 39.7362 6.65198C38.1061 7.37034 36.4207 7.8124 34.7077 8.11633C32.9947 8.42025 31.3646 8.61364 29.5134 8.83467C27.7451 9.00045 26.0598 9.1386 24.5125 9.35963L24.5401 9.33202Z" fill="#52805A"/>
<path d="M13.6826 9.16626C16.6389 9.55307 19.5676 10.4649 22.2753 11.7358C23.6568 12.3713 24.983 13.1449 26.171 14.2501C26.7513 14.8027 27.2762 15.4381 27.663 16.1565C27.9946 16.8472 28.5748 17.6761 28.1051 18.8918C27.8288 19.5549 26.9447 19.8036 26.475 19.693C25.95 19.6101 25.6461 19.4996 25.2869 19.3891C24.5686 19.1681 23.8226 18.8918 23.1318 18.5878C21.7227 17.98 20.3689 17.234 19.1809 16.267C16.7495 14.4158 14.7602 11.9568 13.7103 9.16626L13.6826 9.16626ZM13.6826 9.16626C15.2575 11.7081 17.3297 13.8356 19.7611 15.4105C20.9768 16.1841 22.2477 16.8748 23.6015 17.3721C24.2646 17.6208 24.9554 17.8695 25.6461 18.0905C25.9776 18.1734 26.3644 18.3116 26.6131 18.3392C26.8618 18.3392 26.8341 18.3392 26.8618 18.2839C26.9999 18.0629 26.8065 17.3722 26.475 16.792C26.171 16.2117 25.729 15.6868 25.2593 15.1895C24.2923 14.1948 23.0489 13.4212 21.8056 12.7028C19.2361 11.2661 16.5284 10.1333 13.6826 9.19392L13.6826 9.16626Z" fill="#52805A"/>
<path d="M16.1965 8.80717C16.4176 7.86778 16.9425 7.23231 17.5227 6.6521C18.1582 6.12714 18.8489 5.65743 19.7883 5.51929C19.5397 6.48631 19.0147 7.12178 18.4621 7.67436C17.8543 8.19932 17.1635 8.6414 16.1965 8.80717Z" fill="#52805A"/>
<path d="M22.7168 9.33203C23.7391 9.33203 24.5956 9.74645 25.3692 10.2161C26.1152 10.7411 26.8336 11.3213 27.2756 12.2607C26.1981 12.2055 25.3968 11.8463 24.6232 11.3766C23.8772 10.8792 23.2141 10.2991 22.7168 9.33203Z" fill="#52805A"/>
<path d="M37.554 10.1886C38.3829 9.13868 39.4328 8.44793 40.4827 7.84008C41.5878 7.2875 42.7206 6.81779 44.0745 6.70728C43.2456 7.75719 42.2233 8.44793 41.1458 9.05578C40.0406 9.60836 38.9078 10.0781 37.554 10.1886Z" fill="#52805A"/>
<path d="M49.9871 10.9897C51.3409 11.266 52.4737 11.9015 53.5512 12.6199C54.6011 13.3659 55.5958 14.1947 56.3418 15.3828C54.988 15.1065 53.8552 14.471 52.7776 13.7527C51.7277 13.0067 50.7607 12.1778 49.9871 10.9897Z" fill="#52805A"/>
<path d="M64.1329 11.2936C64.6302 10.4095 65.2933 9.88451 65.984 9.47007C66.7024 9.08326 67.476 8.80701 68.4983 8.86227C68.0562 9.71877 67.3655 10.2437 66.6471 10.6858C65.9011 11.0726 65.0723 11.3765 64.1329 11.2936Z" fill="#52805A"/>
<path d="M72.063 10.9897C73.1405 11.045 73.997 11.4318 74.7983 11.9015C75.5719 12.4265 76.2903 13.0343 76.7876 14.0013C75.7101 13.9461 74.8536 13.5593 74.0523 13.0896C73.2787 12.5646 72.5603 11.9568 72.063 10.9897Z" fill="#52805A"/>
<path d="M43.5775 6.09936C43.5775 7.16751 44.4434 8.0334 45.5115 8.0334C46.5797 8.0334 47.4456 7.16751 47.4456 6.09936C47.4456 5.03122 46.5797 4.16528 45.5115 4.16528C44.4434 4.16528 43.5775 5.03122 43.5775 6.09936Z" fill="#52805A"/>
<path d="M56.0103 16.0183C56.0103 17.0864 56.8762 17.9523 57.9444 17.9523C59.0125 17.9523 59.8784 17.0864 59.8784 16.0183C59.8784 14.9501 59.0125 14.0842 57.9444 14.0842C56.8762 14.0842 56.0103 14.9501 56.0103 16.0183Z" fill="#52805A"/>
<path d="M68.1949 8.0334C68.1949 9.10155 69.0608 9.96744 70.1289 9.96744C71.1971 9.96744 72.063 9.10155 72.063 8.0334C72.063 6.96526 71.1971 6.09937 70.1289 6.09937C69.0608 6.09937 68.1949 6.96526 68.1949 8.0334Z" fill="#52805A"/>
<path d="M76.345 14.8027C76.345 15.8708 77.211 16.7367 78.2791 16.7367C79.3472 16.7367 80.2131 15.8708 80.2131 14.8027C80.2131 13.7345 79.3472 12.8687 78.2791 12.8687C77.211 12.8687 76.345 13.7345 76.345 14.8027Z" fill="#52805A"/>
<path d="M26.889 13.1726C26.889 14.2408 27.7549 15.1066 28.823 15.1066C29.8912 15.1066 30.7571 14.2408 30.7571 13.1726C30.7571 12.1045 29.8912 11.2385 28.823 11.2385C27.7549 11.2385 26.889 12.1045 26.889 13.1726Z" fill="#52805A"/>
<path d="M19.263 4.52461C19.263 5.59276 20.1289 6.45865 21.197 6.45865C22.2652 6.45865 23.1311 5.59276 23.1311 4.52461C23.1311 3.45647 22.2652 2.59058 21.197 2.59058C20.1289 2.59058 19.263 3.45647 19.263 4.52461Z" fill="#52805A"/>
</svg>
